<mxfile host="app.diagrams.net" agent="Mozilla/5.0 (Windows NT 10.0; Win64; x64) AppleWebKit/537.36 (KHTML, like Gecko) Chrome/131.0.0.0 Safari/537.36" version="25.0.3">
  <diagram name="第 1 页" id="U6L-8s6eIyGui5j0_ZIk">
    <mxGraphModel dx="1562" dy="853" grid="1" gridSize="10" guides="1" tooltips="1" connect="1" arrows="1" fold="1" page="1" pageScale="1" pageWidth="827" pageHeight="1169" math="0" shadow="0">
      <root>
        <mxCell id="0" />
        <mxCell id="1" parent="0" />
        <mxCell id="JdelOJTq3U956AnTHWuu-1" value="&lt;font style=&quot;font-size: 16px;&quot;&gt;Map&lt;/font&gt;" style="rounded=1;whiteSpace=wrap;html=1;" vertex="1" parent="1">
          <mxGeometry x="390" y="60" width="120" height="60" as="geometry" />
        </mxCell>
        <mxCell id="JdelOJTq3U956AnTHWuu-2" value="&lt;font style=&quot;font-size: 16px;&quot;&gt;HashMap&lt;/font&gt;" style="rounded=1;whiteSpace=wrap;html=1;" vertex="1" parent="1">
          <mxGeometry x="400" y="230" width="120" height="60" as="geometry" />
        </mxCell>
        <mxCell id="JdelOJTq3U956AnTHWuu-3" value="&lt;font style=&quot;font-size: 16px;&quot;&gt;HashTable&lt;/font&gt;&lt;span style=&quot;color: rgba(0, 0, 0, 0); font-family: monospace; font-size: 0px; text-align: start; text-wrap-mode: nowrap;&quot;&gt;%3CmxGraphModel%3E%3Croot%3E%3CmxCell%20id%3D%220%22%2F%3E%3CmxCell%20id%3D%221%22%20parent%3D%220%22%2F%3E%3CmxCell%20id%3D%222%22%20value%3D%22%26lt%3Bfont%20style%3D%26quot%3Bfont-size%3A%2016px%3B%26quot%3B%26gt%3BMap%26lt%3B%2Ffont%26gt%3B%22%20style%3D%22rounded%3D1%3BwhiteSpace%3Dwrap%3Bhtml%3D1%3B%22%20vertex%3D%221%22%20parent%3D%221%22%3E%3CmxGeometry%20x%3D%22390%22%20y%3D%2260%22%20width%3D%22120%22%20height%3D%2260%22%20as%3D%22geometry%22%2F%3E%3C%2FmxCell%3E%3C%2Froot%3E%3C%2FmxGraphModel%3E&lt;/span&gt;" style="rounded=1;whiteSpace=wrap;html=1;" vertex="1" parent="1">
          <mxGeometry x="160" y="230" width="120" height="60" as="geometry" />
        </mxCell>
        <mxCell id="JdelOJTq3U956AnTHWuu-8" style="edgeStyle=orthogonalEdgeStyle;shape=connector;curved=1;rounded=0;orthogonalLoop=1;jettySize=auto;html=1;entryX=0.5;entryY=1;entryDx=0;entryDy=0;strokeColor=default;align=center;verticalAlign=middle;fontFamily=Helvetica;fontSize=11;fontColor=default;labelBackgroundColor=default;endArrow=classic;" edge="1" parent="1" source="JdelOJTq3U956AnTHWuu-4" target="JdelOJTq3U956AnTHWuu-1">
          <mxGeometry relative="1" as="geometry">
            <Array as="points">
              <mxPoint x="700" y="170" />
              <mxPoint x="450" y="170" />
            </Array>
          </mxGeometry>
        </mxCell>
        <mxCell id="JdelOJTq3U956AnTHWuu-4" value="&lt;font style=&quot;font-size: 16px;&quot;&gt;TreeMap&lt;/font&gt;" style="rounded=1;whiteSpace=wrap;html=1;" vertex="1" parent="1">
          <mxGeometry x="640" y="230" width="120" height="60" as="geometry" />
        </mxCell>
        <mxCell id="JdelOJTq3U956AnTHWuu-5" style="edgeStyle=orthogonalEdgeStyle;rounded=0;orthogonalLoop=1;jettySize=auto;html=1;entryX=0.433;entryY=0.978;entryDx=0;entryDy=0;entryPerimeter=0;curved=1;" edge="1" parent="1" source="JdelOJTq3U956AnTHWuu-3" target="JdelOJTq3U956AnTHWuu-1">
          <mxGeometry relative="1" as="geometry">
            <Array as="points">
              <mxPoint x="220" y="170" />
              <mxPoint x="442" y="170" />
            </Array>
          </mxGeometry>
        </mxCell>
        <mxCell id="JdelOJTq3U956AnTHWuu-6" style="edgeStyle=orthogonalEdgeStyle;shape=connector;curved=1;rounded=0;orthogonalLoop=1;jettySize=auto;html=1;entryX=0.444;entryY=0.944;entryDx=0;entryDy=0;entryPerimeter=0;strokeColor=default;align=center;verticalAlign=middle;fontFamily=Helvetica;fontSize=11;fontColor=default;labelBackgroundColor=default;endArrow=classic;" edge="1" parent="1" source="JdelOJTq3U956AnTHWuu-2" target="JdelOJTq3U956AnTHWuu-1">
          <mxGeometry relative="1" as="geometry" />
        </mxCell>
        <mxCell id="JdelOJTq3U956AnTHWuu-9" value="&lt;font style=&quot;font-size: 16px;&quot;&gt;3. 其中保存节点的时候 value = new Object()&amp;nbsp;&lt;/font&gt;&lt;span style=&quot;font-size: 16px;&quot;&gt;这里的value 就换成了自己输入的值&amp;nbsp;&lt;/span&gt;" style="text;html=1;align=center;verticalAlign=middle;resizable=0;points=[];autosize=1;strokeColor=none;fillColor=none;fontFamily=Helvetica;fontSize=11;fontColor=default;labelBackgroundColor=default;" vertex="1" parent="1">
          <mxGeometry x="1150" y="160" width="600" height="30" as="geometry" />
        </mxCell>
        <mxCell id="JdelOJTq3U956AnTHWuu-11" style="edgeStyle=orthogonalEdgeStyle;shape=connector;curved=1;rounded=0;orthogonalLoop=1;jettySize=auto;html=1;entryX=0.5;entryY=1;entryDx=0;entryDy=0;strokeColor=default;align=center;verticalAlign=middle;fontFamily=Helvetica;fontSize=11;fontColor=default;labelBackgroundColor=default;endArrow=classic;" edge="1" parent="1" source="JdelOJTq3U956AnTHWuu-10" target="JdelOJTq3U956AnTHWuu-2">
          <mxGeometry relative="1" as="geometry" />
        </mxCell>
        <mxCell id="JdelOJTq3U956AnTHWuu-10" value="&lt;font style=&quot;font-size: 16px;&quot;&gt;LinkedHashMap&lt;/font&gt;" style="rounded=1;whiteSpace=wrap;html=1;" vertex="1" parent="1">
          <mxGeometry x="460" y="390" width="120" height="60" as="geometry" />
        </mxCell>
        <mxCell id="JdelOJTq3U956AnTHWuu-12" value="&lt;font style=&quot;font-size: 16px;&quot;&gt;所以这里就要和HashSet进行关联思考：&lt;/font&gt;" style="text;html=1;align=center;verticalAlign=middle;resizable=0;points=[];autosize=1;strokeColor=none;fillColor=none;fontFamily=Helvetica;fontSize=11;fontColor=default;labelBackgroundColor=default;" vertex="1" parent="1">
          <mxGeometry x="830" y="70" width="310" height="30" as="geometry" />
        </mxCell>
        <mxCell id="JdelOJTq3U956AnTHWuu-13" value="&lt;font style=&quot;font-size: 16px;&quot;&gt;1. HashSet 中的遍历顺序不能保证，Map也是一样&lt;/font&gt;" style="text;html=1;align=center;verticalAlign=middle;resizable=0;points=[];autosize=1;strokeColor=none;fillColor=none;fontFamily=Helvetica;fontSize=11;fontColor=default;labelBackgroundColor=default;" vertex="1" parent="1">
          <mxGeometry x="1150" y="70" width="380" height="30" as="geometry" />
        </mxCell>
        <mxCell id="JdelOJTq3U956AnTHWuu-14" value="&lt;font style=&quot;font-size: 16px;&quot;&gt;2. LinkedHashSet 通过table + 双向链表 可以保证遍历顺序&amp;nbsp; == LinkedHashMap&lt;/font&gt;" style="text;html=1;align=center;verticalAlign=middle;resizable=0;points=[];autosize=1;strokeColor=none;fillColor=none;fontFamily=Helvetica;fontSize=11;fontColor=default;labelBackgroundColor=default;" vertex="1" parent="1">
          <mxGeometry x="1160" y="120" width="580" height="30" as="geometry" />
        </mxCell>
      </root>
    </mxGraphModel>
  </diagram>
</mxfile>
